<svg width="699" height="200" viewBox="0 0 699 200" fill="none" xmlns="http://www.w3.org/2000/svg">
<rect width="200" height="200" rx="50" fill="#851BFF"/>
<path d="M90.2027 78.0361L53.8303 69.8807C47.087 68.3687 40.8793 73.9892 41.716 80.8491L49.6163 145.624C50.3909 151.975 56.848 155.975 62.8794 153.84L106.387 138.44C106.896 138.26 107.419 138.121 107.951 138.026L150.06 130.441C155.534 129.455 159.151 124.193 158.111 118.729L146.386 57.1463C144.984 49.7835 136.28 46.5228 130.385 51.1524L98.5674 76.1427C96.2051 77.9981 93.1338 78.6933 90.2027 78.0361Z" fill="white"/>
<path d="M261.084 36.392C265.508 36.392 269.563 36.866 273.25 37.814C276.937 38.6567 279.781 39.4993 281.782 40.342L277.2 59.144C275.093 58.196 272.776 57.5113 270.248 57.09C267.825 56.5633 265.561 56.3 263.454 56.3C260.61 56.3 258.187 56.7213 256.186 57.564C254.29 58.3013 252.763 59.3547 251.604 60.724C250.551 62.0933 249.761 63.726 249.234 65.622C248.813 67.518 248.602 69.572 248.602 71.784V75.892H277.674V95.484H248.602V159H225.06V71.468C225.06 60.724 228.062 52.192 234.066 45.872C240.175 39.552 249.181 36.392 261.084 36.392ZM354.023 75.892C349.283 91.9027 344.332 106.913 339.171 120.922C334.009 134.931 328.374 148.519 322.265 161.686C320.053 166.426 317.841 170.429 315.629 173.694C313.417 177.065 310.994 179.803 308.361 181.91C305.727 184.122 302.725 185.702 299.355 186.65C296.089 187.703 292.245 188.23 287.821 188.23C284.134 188.23 280.711 187.861 277.551 187.124C274.496 186.492 271.968 185.755 269.967 184.912L274.075 166.11C276.497 166.953 278.657 167.532 280.553 167.848C282.449 168.164 284.45 168.322 286.557 168.322C290.77 168.322 293.983 167.163 296.195 164.846C298.512 162.634 300.461 159.527 302.041 155.524C296.669 144.991 291.297 133.193 285.925 120.132C280.553 106.965 275.497 92.2187 270.757 75.892H295.721C296.774 80 297.985 84.4767 299.355 89.322C300.829 94.062 302.357 98.9073 303.937 103.858C305.517 108.703 307.097 113.443 308.677 118.078C310.362 122.713 311.942 126.926 313.417 130.718C314.786 126.926 316.208 122.713 317.683 118.078C319.157 113.443 320.579 108.703 321.949 103.858C323.423 98.9073 324.793 94.062 326.057 89.322C327.426 84.4767 328.637 80 329.691 75.892H354.023ZM368.749 116.814C368.749 124.082 370.381 129.928 373.647 134.352C376.912 138.776 381.757 140.988 388.183 140.988C390.289 140.988 392.238 140.935 394.029 140.83C395.819 140.619 397.294 140.409 398.453 140.198V97.38C396.978 96.432 395.029 95.642 392.607 95.01C390.289 94.378 387.919 94.062 385.497 94.062C374.331 94.062 368.749 101.646 368.749 116.814ZM421.995 156.314C419.888 156.946 417.465 157.578 414.727 158.21C411.988 158.737 409.091 159.211 406.037 159.632C403.087 160.053 400.033 160.369 396.873 160.58C393.818 160.896 390.869 161.054 388.025 161.054C381.178 161.054 375.069 160.053 369.697 158.052C364.325 156.051 359.795 153.207 356.109 149.52C352.422 145.728 349.578 141.199 347.577 135.932C345.681 130.56 344.733 124.556 344.733 117.92C344.733 111.179 345.575 105.122 347.261 99.75C348.946 94.2727 351.369 89.638 354.529 85.846C357.689 82.054 361.533 79.1573 366.063 77.156C370.697 75.1547 375.964 74.154 381.863 74.154C385.128 74.154 388.025 74.47 390.553 75.102C393.186 75.734 395.819 76.6293 398.453 77.788V40.184L421.995 36.392V156.314ZM424.288 118.078C424.288 110.705 425.394 104.279 427.606 98.802C429.923 93.2193 432.925 88.5847 436.612 84.898C440.299 81.2113 444.512 78.42 449.252 76.524C454.097 74.628 459.048 73.68 464.104 73.68C475.901 73.68 485.223 77.314 492.07 84.582C498.917 91.7447 502.34 102.331 502.34 116.34C502.34 117.709 502.287 119.237 502.182 120.922C502.077 122.502 501.971 123.924 501.866 125.188H448.462C448.989 130.033 451.253 133.878 455.256 136.722C459.259 139.566 464.631 140.988 471.372 140.988C475.691 140.988 479.904 140.619 484.012 139.882C488.225 139.039 491.649 138.039 494.282 136.88L497.442 155.998C496.178 156.63 494.493 157.262 492.386 157.894C490.279 158.526 487.909 159.053 485.276 159.474C482.748 160.001 480.009 160.422 477.06 160.738C474.111 161.054 471.161 161.212 468.212 161.212C460.733 161.212 454.203 160.106 448.62 157.894C443.143 155.682 438.561 152.68 434.874 148.888C431.293 144.991 428.607 140.409 426.816 135.142C425.131 129.875 424.288 124.187 424.288 118.078ZM479.588 109.072C479.483 107.071 479.114 105.122 478.482 103.226C477.955 101.33 477.06 99.6447 475.796 98.17C474.637 96.6953 473.11 95.484 471.214 94.536C469.423 93.588 467.159 93.114 464.42 93.114C461.787 93.114 459.522 93.588 457.626 94.536C455.73 95.3787 454.15 96.5373 452.886 98.012C451.622 99.4867 450.621 101.225 449.884 103.226C449.252 105.122 448.778 107.071 448.462 109.072H479.588ZM550.37 114.918C550.37 107.334 549.369 101.962 547.368 98.802C545.472 95.642 542.154 94.062 537.414 94.062C535.939 94.062 534.412 94.1673 532.832 94.378C531.252 94.4833 529.724 94.6413 528.25 94.852V159H504.708V78.736C506.709 78.2093 509.026 77.6827 511.66 77.156C514.398 76.524 517.242 75.9973 520.192 75.576C523.246 75.0493 526.354 74.6807 529.514 74.47C532.674 74.154 535.781 73.996 538.836 73.996C544.84 73.996 549.685 74.786 553.372 76.366C557.164 77.8407 560.271 79.6313 562.694 81.738C566.064 79.3153 569.909 77.4193 574.228 76.05C578.652 74.6807 582.707 73.996 586.394 73.996C593.03 73.996 598.454 74.944 602.668 76.84C606.986 78.6307 610.41 81.2113 612.938 84.582C615.466 87.9527 617.204 91.9553 618.152 96.59C619.1 101.225 619.574 106.386 619.574 112.074V159H596.032V114.918C596.032 107.334 595.031 101.962 593.03 98.802C591.134 95.642 587.816 94.062 583.076 94.062C581.812 94.062 580.021 94.378 577.704 95.01C575.492 95.642 573.648 96.432 572.174 97.38C572.911 99.8027 573.385 102.383 573.596 105.122C573.806 107.755 573.912 110.599 573.912 113.654V159H550.37V114.918ZM696.469 75.892C691.729 91.9027 686.778 106.913 681.617 120.922C676.456 134.931 670.82 148.519 664.711 161.686C662.499 166.426 660.287 170.429 658.075 173.694C655.863 177.065 653.44 179.803 650.807 181.91C648.174 184.122 645.172 185.702 641.801 186.65C638.536 187.703 634.691 188.23 630.267 188.23C626.58 188.23 623.157 187.861 619.997 187.124C616.942 186.492 614.414 185.755 612.413 184.912L616.521 166.11C618.944 166.953 621.103 167.532 622.999 167.848C624.895 168.164 626.896 168.322 629.003 168.322C633.216 168.322 636.429 167.163 638.641 164.846C640.958 162.634 642.907 159.527 644.487 155.524C639.115 144.991 633.743 133.193 628.371 120.132C622.999 106.965 617.943 92.2187 613.203 75.892H638.167C639.22 80 640.432 84.4767 641.801 89.322C643.276 94.062 644.803 98.9073 646.383 103.858C647.963 108.703 649.543 113.443 651.123 118.078C652.808 122.713 654.388 126.926 655.863 130.718C657.232 126.926 658.654 122.713 660.129 118.078C661.604 113.443 663.026 108.703 664.395 103.858C665.87 98.9073 667.239 94.062 668.503 89.322C669.872 84.4767 671.084 80 672.137 75.892H696.469Z" fill="black"/>
</svg>
